<svg xmlns="http://www.w3.org/2000/svg" width="1600" height="900" viewBox="0 0 1600 900">
  <rect width="1600" height="900" fill="#ffffff"/>
  <text x="800" y="90" text-anchor="middle" font-family="Figtree, Arial, sans-serif" font-size="34" font-weight="700" fill="#111111">Precious metals lifecycle</text>
  <g font-family="Figtree, Arial, sans-serif" font-size="22" text-anchor="middle">
    <rect x="80" y="330" width="180" height="110" rx="18" fill="#E8E8FF" stroke="#0000FF" stroke-width="4"/>
    <text x="170" y="385" fill="#111111">Program</text><text x="170" y="415" fill="#111111">setup</text>
    <rect x="300" y="330" width="180" height="110" rx="18" fill="#E8F5E8" stroke="#187848" stroke-width="4"/>
    <text x="390" y="385">Asset</text><text x="390" y="415">configuration</text>
    <rect x="520" y="330" width="180" height="110" rx="18" fill="#FFF0E8" stroke="#C05030" stroke-width="4"/>
    <text x="610" y="385">Compliance</text><text x="610" y="415">rules</text>
    <rect x="740" y="330" width="180" height="110" rx="18" fill="#F0E8F8" stroke="#8848C8" stroke-width="4"/>
    <text x="830" y="385">Contract</text><text x="830" y="415">deployment</text>
    <rect x="960" y="330" width="180" height="110" rx="18" fill="#E8F0F8" stroke="#1E4868" stroke-width="4"/>
    <text x="1050" y="385">Issuance &amp;</text><text x="1050" y="415">distribution</text>
    <rect x="1180" y="330" width="180" height="110" rx="18" fill="#E8F5E8" stroke="#187848" stroke-width="4"/>
    <text x="1270" y="385">Transfers &amp;</text><text x="1270" y="415">servicing</text>
    <rect x="740" y="560" width="180" height="110" rx="18" fill="#FFF0E8" stroke="#C05030" stroke-width="4"/>
    <text x="830" y="615">Redemption</text><text x="830" y="645">/ burn</text>
    <rect x="960" y="560" width="220" height="110" rx="18" fill="#E8E8FF" stroke="#0000FF" stroke-width="4"/>
    <text x="1070" y="615">Physical release</text><text x="1070" y="645">/ cash settlement</text>
  </g>
  <g stroke="#787878" stroke-width="6" fill="none" marker-end="url(#arrow)">
    <path d="M260 385 H300"/><path d="M480 385 H520"/><path d="M700 385 H740"/><path d="M920 385 H960"/><path d="M1140 385 H1180"/>
    <path d="M1270 440 V505 H830 V560"/>
    <path d="M920 615 H960"/>
  </g>
  <defs><marker id="arrow" viewBox="0 0 10 10" refX="8" refY="5" markerWidth="8" markerHeight="8" orient="auto-start-reverse"><path d="M 0 0 L 10 5 L 0 10 z" fill="#787878"/></marker></defs>
</svg>