<svg xmlns="http://www.w3.org/2000/svg" viewBox="0 0 64 64">
  <defs>
    <radialGradient id="halo" cx="50%" cy="42%" r="54%">
      <stop offset="0" stop-color="#153a5f"/>
      <stop offset=".55" stop-color="#07162b"/>
      <stop offset="1" stop-color="#020812"/>
    </radialGradient>
    <linearGradient id="gold" x1="14" y1="11" x2="50" y2="53">
      <stop stop-color="#fff0a6"/>
      <stop offset=".45" stop-color="#e9b95d"/>
      <stop offset="1" stop-color="#9c6c2b"/>
    </linearGradient>
  </defs>
  <rect x="4" y="4" width="56" height="56" rx="14" fill="#061326" stroke="#56d9ff" stroke-width="2"/>
  <circle cx="32" cy="31" r="22" fill="url(#halo)" stroke="url(#gold)" stroke-width="3"/>
  <path d="M19 45c3-7 7.2-10.5 13-10.5S42 38 45 45" fill="#121927" stroke="#64e7ff" stroke-width="1.5"/>
  <circle cx="32" cy="27" r="8.8" fill="#f1c4a7"/>
  <path d="M20 26c2-9.5 9.7-14.2 19.2-10 4 1.7 6.4 5.1 6.7 9.2-4.9-4-10.3-4.8-16.1-2.5-3.4 1.4-6.3 2.5-9.8 3.3z" fill="#18243a"/>
  <path d="M43 28c4.5.5 6.5 3.2 5.8 7.8" fill="none" stroke="#65e6f7" stroke-width="2.3" stroke-linecap="round"/>
  <path d="M32 52c9.8 0 17.8-7.8 18.1-17.5" fill="none" stroke="#49dfff" stroke-width="2" opacity=".65"/>
</svg>
